<svg width="514" height="86" viewBox="0 0 514 86" fill="none" xmlns="http://www.w3.org/2000/svg">
<path d="M69.082 49.842L57.454 50.298C50.31 50.298 45.484 50.07 42.976 49.614C40.544 49.082 38.34 48.474 36.364 47.79C34.464 47.106 32.944 46.308 31.804 45.396C28.992 43.268 27.586 40.418 27.586 36.846C27.586 35.782 28.232 34.186 29.524 32.058C30.816 29.93 33.02 27.422 36.136 24.534C39.328 21.57 43.09 18.796 47.422 16.212C51.83 13.552 57.606 11.234 64.75 9.25799C71.894 7.282 79.646 6.142 88.006 5.838C90.97 5.838 94.086 6.218 97.354 6.978C100.698 7.662 103.434 8.498 105.562 9.486C107.766 10.474 109.704 11.994 111.376 14.046C113.048 16.022 113.884 18.34 113.884 21C113.884 23.128 111.832 25.408 107.728 27.84C103.168 30.576 97.126 31.944 89.602 31.944C82.154 31.944 78.43 31.412 78.43 30.348C78.43 29.512 80.596 28.524 84.928 27.384C89.336 26.244 93.744 24.914 98.152 23.394C102.56 21.874 104.764 20.164 104.764 18.264C104.764 17.276 103.092 16.782 99.748 16.782C77.708 16.782 58.784 22.482 42.976 33.882C40.012 36.086 38.53 37.986 38.53 39.582C38.53 42.09 46.434 43.344 62.242 43.344C76.454 43.496 83.56 47.296 83.56 54.744C83.56 60.064 79.95 65.118 72.73 69.906C65.51 74.694 56.998 78.418 47.194 81.078C37.466 83.738 28.308 85.106 19.72 85.182C15.692 85.182 11.436 84.118 6.952 81.99C2.468 79.862 0.225998 77.278 0.225998 74.238C0.225998 73.25 1.062 72.718 2.734 72.642C11.702 71.654 17.44 70.59 19.948 69.45C20.556 69.298 21.05 69.222 21.43 69.222C21.81 69.222 22 69.298 22 69.45C22 69.754 21.544 70.248 20.632 70.932C19.796 71.388 18.884 71.806 17.896 72.186C15.768 72.946 14.704 73.44 14.704 73.668C14.704 73.896 15.464 74.01 16.984 74.01C18.504 74.01 22.342 73.402 28.498 72.186C34.654 70.97 41.228 69.412 48.22 67.512C55.288 65.612 61.52 63.256 66.916 60.444C72.312 57.632 75.01 54.934 75.01 52.35C75.01 50.678 73.034 49.842 69.082 49.842ZM103.442 73.212L104.354 65.916C104.354 65.688 104.278 65.574 104.126 65.574C104.05 65.574 103.86 65.726 103.556 66.03C102.568 67.094 101.314 68.424 99.7943 70.02C98.2743 71.54 95.6523 73.63 91.9283 76.29C88.2803 78.874 85.3163 80.166 83.0363 80.166C82.6563 80.09 82.2003 79.938 81.6683 79.71C81.0603 79.558 80.3003 78.95 79.3883 77.886C78.4763 76.822 78.0203 75.302 78.0203 73.326C78.0203 71.35 79.5403 68.348 82.5803 64.32C85.5443 60.216 89.1163 56.226 93.2963 52.35C97.4763 48.398 102.112 44.978 107.204 42.09C112.372 39.202 116.856 37.758 120.656 37.758C122.1 37.834 123.24 38.86 124.076 40.836C124.836 40.076 125.52 39.696 126.128 39.696C126.736 39.696 127.458 40.152 128.294 41.064C128.75 41.14 129.206 41.406 129.662 41.862C130.118 42.242 130.346 42.812 130.346 43.572C130.346 44.332 129.814 45.168 128.75 46.08C127.154 48.056 125.292 50.298 123.164 52.806C121.036 55.314 119.516 57.138 118.604 58.278C117.692 59.342 116.742 60.558 115.754 61.926C114.082 64.282 113.17 66.182 113.018 67.626C120.77 63.902 132.968 55.884 149.612 43.572C150.296 44.104 150.638 44.75 150.638 45.51C150.638 46.27 150.334 46.916 149.726 47.448C149.118 47.98 148.358 48.626 147.446 49.386C146.61 50.146 144.9 51.628 142.316 53.832C139.732 56.036 137.224 58.164 134.792 60.216C132.436 62.192 129.7 64.434 126.584 66.942C123.544 69.374 120.808 71.464 118.376 73.212C112.524 77.392 108.876 79.482 107.432 79.482C105.988 79.482 104.962 79.026 104.354 78.114C103.746 77.202 103.442 75.568 103.442 73.212ZM91.8143 68.424C92.7263 68.424 95.5003 66.562 100.136 62.838C104.848 59.114 109.294 55.39 113.474 51.666L119.858 46.08C120.162 45.776 120.314 45.586 120.314 45.51C120.314 45.358 120.2 45.282 119.972 45.282C117.084 45.282 113.322 46.954 108.686 50.298C104.05 53.566 100.022 57.062 96.6023 60.786C93.2583 64.434 91.5863 66.904 91.5863 68.196C91.5863 68.348 91.6623 68.424 91.8143 68.424ZM138.159 69.678C140.819 69.678 143.251 68.082 145.455 64.89C147.735 61.622 149.331 58.354 150.243 55.086C151.155 51.742 151.611 49.082 151.611 47.106C151.611 46.574 151.193 46.308 150.357 46.308C149.597 46.308 148.685 46.726 147.621 47.562L132.687 59.076C131.623 59.684 130.407 59.988 129.039 59.988C127.671 59.988 126.987 59.494 126.987 58.506C126.987 57.822 127.063 57.366 127.215 57.138C127.443 56.91 128.013 56.53 128.925 55.998C134.549 52.122 142.225 45.814 151.953 37.074C153.093 35.554 154.119 34.794 155.031 34.794C155.943 34.794 157.463 35.098 159.591 35.706C161.719 36.238 162.783 36.884 162.783 37.644C162.783 42.204 162.365 46.346 161.529 50.07C160.693 53.794 159.819 56.644 158.907 58.62C158.071 60.52 157.653 61.546 157.653 61.698C157.653 61.85 157.729 61.926 157.881 61.926C158.033 61.926 158.337 61.812 158.793 61.584C164.493 58.696 171.751 53.984 180.567 47.448L183.303 45.396C183.987 45.928 184.329 46.574 184.329 47.334C184.329 48.094 183.987 48.778 183.303 49.386C183.151 49.386 181.175 50.982 177.375 54.174C173.651 57.366 169.471 60.862 164.835 64.662C160.275 68.386 155.373 71.806 150.129 74.922C144.885 78.038 140.819 79.596 137.931 79.596C130.787 79.596 127.215 75.302 127.215 66.714C127.215 66.03 127.481 65.422 128.013 64.89C128.621 64.282 129.381 63.978 130.293 63.978C130.293 64.358 130.483 64.966 130.863 65.802C131.319 66.562 131.775 67.208 132.231 67.74C133.599 69.032 135.575 69.678 138.159 69.678ZM174.149 69.678C176.809 69.678 179.241 68.082 181.445 64.89C183.725 61.622 185.321 58.354 186.233 55.086C187.145 51.742 187.601 49.082 187.601 47.106C187.601 46.574 187.183 46.308 186.347 46.308C185.587 46.308 184.675 46.726 183.611 47.562L168.677 59.076C167.613 59.684 166.397 59.988 165.029 59.988C163.661 59.988 162.977 59.494 162.977 58.506C162.977 57.822 163.053 57.366 163.205 57.138C163.433 56.91 164.003 56.53 164.915 55.998C170.539 52.122 178.215 45.814 187.943 37.074C189.083 35.554 190.109 34.794 191.021 34.794C191.933 34.794 193.453 35.098 195.581 35.706C197.709 36.238 198.773 36.884 198.773 37.644C198.773 42.204 198.355 46.346 197.519 50.07C196.683 53.794 195.809 56.644 194.897 58.62C194.061 60.52 193.643 61.546 193.643 61.698C193.643 61.85 193.719 61.926 193.871 61.926C194.023 61.926 194.327 61.812 194.783 61.584C200.483 58.696 207.741 53.984 216.557 47.448L219.293 45.396C219.977 45.928 220.319 46.574 220.319 47.334C220.319 48.094 219.977 48.778 219.293 49.386C219.141 49.386 217.165 50.982 213.365 54.174C209.641 57.366 205.461 60.862 200.825 64.662C196.265 68.386 191.363 71.806 186.119 74.922C180.875 78.038 176.809 79.596 173.921 79.596C166.777 79.596 163.205 75.302 163.205 66.714C163.205 66.03 163.471 65.422 164.003 64.89C164.611 64.282 165.371 63.978 166.283 63.978C166.283 64.358 166.473 64.966 166.853 65.802C167.309 66.562 167.765 67.208 168.221 67.74C169.589 69.032 171.565 69.678 174.149 69.678ZM213.554 78V4.54545H242.965C248.368 4.54545 252.876 5.34647 256.486 6.94851C260.097 8.55054 262.811 10.7743 264.628 13.6197C266.445 16.4412 267.354 19.6931 267.354 23.3754C267.354 26.2447 266.78 28.7673 265.632 30.9432C264.484 33.0952 262.906 34.8646 260.898 36.2514C258.913 37.6143 256.642 38.5827 254.083 39.1566V39.8739C256.881 39.9935 259.499 40.7826 261.938 42.2411C264.401 43.6997 266.397 45.7441 267.928 48.3743C269.458 50.9806 270.223 54.089 270.223 57.6996C270.223 61.5971 269.255 65.0761 267.318 68.1367C265.405 71.1734 262.572 73.5765 258.818 75.3459C255.064 77.1153 250.437 78 244.937 78H213.554ZM229.084 65.3033H241.745C246.073 65.3033 249.229 64.4783 251.214 62.8285C253.198 61.1547 254.191 58.931 254.191 56.1573C254.191 54.1249 253.701 52.3316 252.72 50.7773C251.74 49.2231 250.341 48.0037 248.524 47.119C246.731 46.2343 244.591 45.7919 242.104 45.7919H229.084V65.3033ZM229.084 35.283H240.597C242.725 35.283 244.614 34.9124 246.264 34.1712C247.938 33.406 249.253 32.33 250.21 30.9432C251.19 29.5563 251.68 27.8945 251.68 25.9577C251.68 23.3036 250.736 21.1636 248.847 19.5376C246.982 17.9117 244.328 17.0987 240.884 17.0987H229.084V35.283ZM308.3 54.5433V22.9091H323.579V78H308.91V67.9933H308.336C307.093 71.2212 305.024 73.8156 302.131 75.7763C299.262 77.737 295.759 78.7173 291.622 78.7173C287.94 78.7173 284.7 77.8804 281.902 76.2067C279.105 74.5329 276.917 72.1538 275.339 69.0692C273.785 65.9847 272.995 62.2905 272.972 57.9865V22.9091H288.251V55.2607C288.275 58.5125 289.147 61.083 290.869 62.9719C292.591 64.8609 294.898 65.8054 297.791 65.8054C299.632 65.8054 301.354 65.387 302.956 64.5501C304.558 63.6893 305.849 62.422 306.83 60.7482C307.834 59.0745 308.324 57.0062 308.3 54.5433ZM328.731 78V22.9091H344.01V78H328.731ZM336.406 15.8075C334.135 15.8075 332.186 15.0543 330.56 13.5479C328.958 12.0176 328.157 10.1884 328.157 8.06037C328.157 5.9562 328.958 4.15092 330.56 2.64453C332.186 1.11423 334.135 0.349073 336.406 0.349073C338.678 0.349073 340.614 1.11423 342.216 2.64453C343.842 4.15092 344.655 5.9562 344.655 8.06037C344.655 10.1884 343.842 12.0176 342.216 13.5479C340.614 15.0543 338.678 15.8075 336.406 15.8075ZM364.458 4.54545V78H349.179V4.54545H364.458ZM389.928 78.8967C385.744 78.8967 381.954 77.8207 378.559 75.6687C375.187 73.4928 372.509 70.3007 370.524 66.0923C368.564 61.8601 367.583 56.6714 367.583 50.5263C367.583 44.2138 368.6 38.9653 370.632 34.7809C372.664 30.5726 375.366 27.4283 378.738 25.348C382.133 23.2438 385.851 22.1918 389.892 22.1918C392.977 22.1918 395.547 22.7178 397.604 23.7699C399.684 24.7981 401.358 26.0893 402.625 27.6435C403.916 29.1738 404.896 30.6802 405.566 32.1626H406.032V4.54545H421.275V78H406.212V69.1768H405.566C404.849 70.7071 403.832 72.2255 402.517 73.7319C401.226 75.2144 399.54 76.4458 397.46 77.4261C395.404 78.4065 392.893 78.8967 389.928 78.8967ZM394.77 66.7379C397.233 66.7379 399.313 66.0684 401.011 64.7294C402.733 63.3665 404.048 61.4656 404.956 59.0266C405.889 56.5877 406.355 53.7303 406.355 50.4545C406.355 47.1787 405.901 44.3333 404.992 41.9183C404.083 39.5033 402.768 37.6383 401.047 36.3232C399.325 35.008 397.233 34.3505 394.77 34.3505C392.26 34.3505 390.143 35.032 388.422 36.3949C386.7 37.7578 385.397 39.6468 384.512 42.0618C383.628 44.4768 383.185 47.2744 383.185 50.4545C383.185 53.6586 383.628 56.4921 384.512 58.9549C385.421 61.3938 386.724 63.3067 388.422 64.6935C390.143 66.0565 392.26 66.7379 394.77 66.7379ZM451.874 79.076C446.207 79.076 441.33 77.9283 437.241 75.6328C433.176 73.3134 430.044 70.0376 427.844 65.8054C425.644 61.5492 424.544 56.516 424.544 50.7056C424.544 45.0387 425.644 40.0652 427.844 35.7852C430.044 31.5051 433.14 28.1695 437.133 25.7784C441.15 23.3873 445.861 22.1918 451.265 22.1918C454.899 22.1918 458.282 22.7776 461.415 23.9492C464.571 25.0969 467.321 26.8305 469.664 29.1499C472.031 31.4692 473.872 34.3864 475.187 37.9013C476.503 41.3923 477.16 45.4811 477.16 50.1676V54.364H430.641V44.8952H462.778C462.778 42.6954 462.299 40.7467 461.343 39.049C460.387 37.3513 459.06 36.0243 457.362 35.0678C455.688 34.0875 453.739 33.5973 451.516 33.5973C449.196 33.5973 447.14 34.1353 445.347 35.2113C443.577 36.2634 442.19 37.6861 441.186 39.4794C440.182 41.2488 439.668 43.2215 439.644 45.3974V54.3999C439.644 57.1257 440.146 59.4809 441.15 61.4656C442.178 63.4502 443.625 64.9805 445.49 66.0565C447.355 67.1325 449.567 67.6705 452.125 67.6705C453.823 67.6705 455.377 67.4313 456.788 66.9531C458.199 66.4749 459.406 65.7576 460.41 64.8011C461.415 63.8447 462.18 62.6731 462.706 61.2862L476.837 62.2188C476.12 65.6141 474.649 68.5791 472.426 71.1136C470.226 73.6243 467.381 75.585 463.89 76.9957C460.422 78.3826 456.417 79.076 451.874 79.076ZM480.061 78V22.9091H494.874V32.5213H495.448C496.452 29.102 498.138 26.5196 500.505 24.7741C502.872 23.0047 505.598 22.12 508.682 22.12C509.448 22.12 510.273 22.1678 511.157 22.2635C512.042 22.3591 512.819 22.4906 513.489 22.658V36.2156C512.771 36.0004 511.779 35.8091 510.512 35.6417C509.244 35.4743 508.085 35.3906 507.033 35.3906C504.785 35.3906 502.776 35.8808 501.007 36.8612C499.262 37.8176 497.875 39.1566 496.847 40.8782C495.842 42.5998 495.34 44.5844 495.34 46.832V78H480.061Z" fill="#FF8989"/>
</svg>
